<?xml version="1.0" encoding="iso-8859-1"?>
<!-- Generator: Adobe Illustrator 19.0.0, SVG Export Plug-In . SVG Version: 6.00 Build 0)  -->
<svg version="1.1" id="Capa_1" xmlns="http://www.w3.org/2000/svg" xmlns:xlink="http://www.w3.org/1999/xlink" x="0px" y="0px"
	 viewBox="0 0 512.003 512.003" style="enable-background:new 0 0 512.003 512.003;" xml:space="preserve">
<g>
	<g>
		<path d="M511.857,93.15c0.014-0.294,0.012-0.589-0.006-0.883c-0.1-0.311-0.219-0.615-0.356-0.911
			c-0.489-1.459-1.33-2.776-2.449-3.833c-0.418-0.345-0.869-0.649-1.345-0.907c-0.423-0.274-0.871-0.508-1.338-0.7
			c-0.582-0.184-1.183-0.305-1.791-0.361c-0.362-0.1-0.731-0.174-1.104-0.223c-0.091,0-0.166,0.049-0.256,0.051
			c-0.096,0.002-0.181-0.04-0.278-0.035l-298.27,18.622c-1.124-26.087-17.978-48.878-42.592-57.594
			c1.158-5.723,3.598-11.108,7.136-15.752c9.11-9.808,22.265-14.82,35.592-13.558c4.713,0,8.533-3.82,8.533-8.533
			S209.514,0,204.801,0c-21.908,0-38.375,6.725-48.942,19.983c-5.212,6.734-8.812,14.572-10.527,22.913
			c-1.503-0.106-3.002-0.23-4.532-0.23c-31.589,0.055-58.42,23.135-63.194,54.362c-8.447-7.524-19.361-11.685-30.673-11.695
			c-20.99,0.058-39.381,14.064-45.019,34.282c-1.204,1.457-1.879,3.278-1.915,5.168v285.942C0.001,466.567,49.764,512,110.935,512
			c0.509-0.053,1.012-0.155,1.502-0.303c1.471,0.438,3.043,0.404,4.494-0.097l389.121-123.65c0.13-0.041,0.216-0.143,0.343-0.19
			c0.557-0.233,1.087-0.527,1.579-0.877c1.898-1,3.227-2.822,3.598-4.935c0.18-0.568,0.298-1.153,0.352-1.746
			c0.006-0.135,0.078-0.249,0.078-0.386V93.867C512.001,93.612,511.879,93.398,511.857,93.15z M98.352,86.564
			c7.752-16.417,24.295-26.873,42.45-26.831c0.912,0,1.804,0.085,2.703,0.137c-0.069,6.324,0.528,12.638,1.78,18.838
			c0.889,3.873,4.334,6.621,8.308,6.625c0.645,0.002,1.288-0.071,1.917-0.217c4.593-1.054,7.462-5.631,6.409-10.224c0,0,0,0,0-0.001
			c-0.669-3.524-1.08-7.092-1.231-10.675c23.385,11.042,33.39,38.951,22.348,62.336c-11.042,23.385-38.951,33.39-62.336,22.348
			C97.315,137.858,87.309,109.949,98.352,86.564z M102.401,494.592c-47.775-3.883-85.333-40.017-85.333-83.867V180.2
			c19.329,28.791,50.762,47.163,85.333,49.875V494.592z M109.769,213.276c-48.973-0.602-90.236-38.693-92.483-84.59
			c0.107-0.755,0.211-1.52,0.387-2.344c2.82-13.924,15.056-23.935,29.263-23.942c12.844,0.028,24.24,8.241,28.329,20.417
			c0.848,2.478,2.806,4.418,5.292,5.242c11.767,33.28,48.285,50.719,81.564,38.952c20.588-7.28,36.035-24.567,40.961-45.841
			l233.895-14.603l-192.154,62.642c-0.122,0.04-0.202,0.137-0.321,0.182c-0.549,0.236-1.071,0.532-1.557,0.882
			c-1.9,0.992-3.225,2.816-3.581,4.93c-0.184,0.575-0.304,1.169-0.357,1.771c-0.005,0.124-0.071,0.228-0.071,0.353v44.542
			c0,4.713-3.82,8.533-8.533,8.533s-8.533-3.82-8.533-8.533V188.5c0-4.713-3.821-8.533-8.533-8.533
			c-4.713,0-8.533,3.821-8.533,8.533v212.567c0,4.713-3.82,8.533-8.533,8.533s-8.533-3.82-8.533-8.533V199.592
			c-0.213-0.87-0.354-1.757-0.421-2.65c-0.039-0.119-0.134-0.198-0.178-0.315c-0.233-0.541-0.523-1.056-0.866-1.535
			c-0.433-0.938-1.151-1.715-2.051-2.22c-0.756-0.735-1.726-1.211-2.769-1.359c-0.621-0.205-1.265-0.335-1.917-0.387
			c-0.116-0.005-0.213-0.067-0.331-0.067c-0.444,0.052-0.882,0.14-1.312,0.265c-0.448,0.016-0.895,0.07-1.334,0.16L109.769,213.276z
			 M119.468,363.71v-33.256l51.2-16.706v33.256L119.468,363.71z M170.668,364.948v33.274l-51.2,16.685v-33.253L170.668,364.948z
			 M119.468,312.51v-84.456l51.2-16.706v84.456L119.468,312.51z M494.935,373.574L119.468,492.885v-60.021l55.293-18.019
			c7.586,11.902,23.384,15.402,35.286,7.816c7.376-4.701,11.836-12.848,11.821-21.595v-1.57l273.067-89.066V373.574z
			 M494.935,292.469l-273.067,89.068v-33.24l273.067-89.066V292.469z M494.935,241.269l-273.067,89.068v-33.24l273.067-89.066
			V241.269z M494.935,190.069l-273.067,89.068v-33.243c2.733,1.012,5.62,1.544,8.533,1.573c14.132-0.015,25.585-11.468,25.6-25.6
			v-38.344l238.933-77.896V190.069z"/>
	</g>
</g>
<g>
</g>
<g>
</g>
<g>
</g>
<g>
</g>
<g>
</g>
<g>
</g>
<g>
</g>
<g>
</g>
<g>
</g>
<g>
</g>
<g>
</g>
<g>
</g>
<g>
</g>
<g>
</g>
<g>
</g>
</svg>
